<svg width="17" height="16" viewBox="0 0 17 16" fill="none" xmlns="http://www.w3.org/2000/svg">
<g clip-path="url(#clip0_1105_24066)">
<path d="M6.50195 5.5C6.50195 5.89782 6.34392 6.27936 6.06261 6.56066C5.78131 6.84196 5.39978 7 5.00195 7C4.60413 7 4.2226 6.84196 3.94129 6.56066C3.65999 6.27936 3.50195 5.89782 3.50195 5.5C3.50195 5.10218 3.65999 4.72064 3.94129 4.43934C4.2226 4.15804 4.60413 4 5.00195 4C5.39978 4 5.78131 4.15804 6.06261 4.43934C6.34392 4.72064 6.50195 5.10218 6.50195 5.5Z" fill="#E7EBEE"/>
<path d="M2.50195 1C1.97152 1 1.46281 1.21071 1.08774 1.58579C0.712667 1.96086 0.501953 2.46957 0.501953 3V13C0.501953 13.5304 0.712667 14.0391 1.08774 14.4142C1.46281 14.7893 1.97152 15 2.50195 15H14.502C15.0324 15 15.5411 14.7893 15.9162 14.4142C16.2912 14.0391 16.502 13.5304 16.502 13V3C16.502 2.46957 16.2912 1.96086 15.9162 1.58579C15.5411 1.21071 15.0324 1 14.502 1H2.50195ZM14.502 2C14.7672 2 15.0215 2.10536 15.2091 2.29289C15.3966 2.48043 15.502 2.73478 15.502 3V9.5L11.725 7.553C11.6312 7.50602 11.525 7.48973 11.4215 7.50642C11.3179 7.52311 11.2222 7.57194 11.148 7.646L7.43795 11.356L4.77795 9.584C4.68191 9.52006 4.56672 9.4913 4.45189 9.5026C4.33707 9.5139 4.22969 9.56456 4.14795 9.646L1.50195 12V3C1.50195 2.73478 1.60731 2.48043 1.79485 2.29289C1.98238 2.10536 2.23674 2 2.50195 2H14.502Z" fill="#E7EBEE"/>
</g>
<defs>
<clipPath id="clip0_1105_24066">
<rect width="16" height="16" fill="white" transform="translate(0.5)"/>
</clipPath>
</defs>
</svg>
