<svg width="17" height="16" viewBox="0 0 17 16" fill="none" xmlns="http://www.w3.org/2000/svg">
<g clip-path="url(#clip0_1107_24001)">
<path d="M0.5 2C0.5 1.46957 0.710714 0.960859 1.08579 0.585786C1.46086 0.210714 1.96957 0 2.5 0L14.5 0C15.0304 0 15.5391 0.210714 15.9142 0.585786C16.2893 0.960859 16.5 1.46957 16.5 2V10C16.5 10.5304 16.2893 11.0391 15.9142 11.4142C15.5391 11.7893 15.0304 12 14.5 12H4.914C4.64881 12.0001 4.39449 12.1055 4.207 12.293L1.354 15.146C1.28413 15.216 1.19505 15.2638 1.09804 15.2832C1.00102 15.3026 0.900432 15.2928 0.808999 15.255C0.717567 15.2172 0.639402 15.1531 0.584397 15.0709C0.529393 14.9886 0.500021 14.8919 0.5 14.793V2ZM4 3C3.86739 3 3.74021 3.05268 3.64645 3.14645C3.55268 3.24021 3.5 3.36739 3.5 3.5C3.5 3.63261 3.55268 3.75979 3.64645 3.85355C3.74021 3.94732 3.86739 4 4 4H13C13.1326 4 13.2598 3.94732 13.3536 3.85355C13.4473 3.75979 13.5 3.63261 13.5 3.5C13.5 3.36739 13.4473 3.24021 13.3536 3.14645C13.2598 3.05268 13.1326 3 13 3H4ZM4 5.5C3.86739 5.5 3.74021 5.55268 3.64645 5.64645C3.55268 5.74021 3.5 5.86739 3.5 6C3.5 6.13261 3.55268 6.25979 3.64645 6.35355C3.74021 6.44732 3.86739 6.5 4 6.5H13C13.1326 6.5 13.2598 6.44732 13.3536 6.35355C13.4473 6.25979 13.5 6.13261 13.5 6C13.5 5.86739 13.4473 5.74021 13.3536 5.64645C13.2598 5.55268 13.1326 5.5 13 5.5H4ZM4 8C3.86739 8 3.74021 8.05268 3.64645 8.14645C3.55268 8.24021 3.5 8.36739 3.5 8.5C3.5 8.63261 3.55268 8.75979 3.64645 8.85355C3.74021 8.94732 3.86739 9 4 9H9C9.13261 9 9.25979 8.94732 9.35355 8.85355C9.44732 8.75979 9.5 8.63261 9.5 8.5C9.5 8.36739 9.44732 8.24021 9.35355 8.14645C9.25979 8.05268 9.13261 8 9 8H4Z" fill="#102E4A"/>
</g>
<defs>
<clipPath id="clip0_1107_24001">
<rect width="16" height="16" fill="white" transform="translate(0.5)"/>
</clipPath>
</defs>
</svg>
